<?xml version="1.0"?>
<svg version="1.1" xmlns="http://www.w3.org/2000/svg" width="400px" height="200px" style=""><path fill="#f7f7f7" d="M33.49,93.07l6.93,0c8.58,0,14.52,3.63,14.52,11.418c0,5.742-2.706,9.24-7.92,10.89c6.204,1.782,9.438,5.478,9.438,10.56c0,9.702-6.468,13.662-17.16,13.662l-20.988,0l0-5.61l4.95-1.98l0-31.02l-4.95-1.98l0-5.61z M33.49,112.078l3.828,0c4.818,0,7.392-2.046,7.392-6.138c0-3.432-2.442-4.95-5.61-4.95l-5.61,0l0,11.088z M33.49,131.68l5.478,0c4.62,0,7.062-2.112,7.062-5.742c0-4.818-2.772-6.93-8.712-6.93l-3.828,0l0,12.672z M98.53366,123.958l-21.912,0c0.396,5.28,3.432,8.382,7.986,8.382c5.478,0,11.088-3.102,11.088-3.102l2.838,5.478s-6.6,5.544-15.048,5.544c-11.352,0-17.16-6.6-17.16-17.82c0-11.55,6.534-19.14,17.622-19.14c9.834,0,14.982,6.072,14.982,15.51c0,2.508-0.396,4.95-0.396,5.148z M76.75366,117.82l11.946,0c0-3.762-1.584-6.6-5.412-6.6c-3.696,0-6.006,2.706-6.534,6.6z M121.99732,103.96l0.594,4.554s4.752-5.214,9.174-5.214c3.63,0,6.138,1.188,6.138,1.188l-0.528,12.672l-5.94,0l-0.99-5.61c-3.828,0-7.128,3.696-7.128,3.696l0,17.424l6.6,1.65l0,5.28l-21.78,0l0-5.28l5.28-1.65l0-21.45l-5.28-1.65l0-5.28z M151.26898,128.05l0.528,4.29s2.31,0.66,5.544,0.66c3.63,0,5.412-1.122,5.412-3.234c0-5.412-17.622-3.432-17.622-15.18c0-8.25,6.6-11.286,13.596-11.286c5.94,0,12.276,1.98,12.276,1.98l-0.264,9.9l-5.61,0l-0.99-3.96s-1.914-0.66-4.554-0.66c-2.838,0-4.554,1.188-4.554,3.366c0,5.346,17.622,3.036,17.622,14.454c0,7.59-6.138,11.88-15.18,11.88c-6.27,0-12.144-1.452-12.144-1.452l0-10.758l5.94,0z M185.95264,93.07c0-3.762,2.706-5.94,5.676-5.94c3.432,0,5.544,1.782,5.544,5.94c0,3.894-2.838,6.006-5.544,6.006c-3.564,0-5.676-2.112-5.676-6.006z M197.04064,132.67l4.62,1.65l0,5.28l-19.8,0l0-5.28l5.28-1.65l0-21.45l-5.28-1.65l0-5.28l15.18-0.33l0,28.71z M242.97796,132.01l0-31.02l-6.27,0l-1.65,6.27l-6.072,0l0-14.19l38.28,0l0,14.19l-6.138,0l-1.65-6.27l-6.27,0l0,31.02l6.27,1.98l0,5.61l-22.77,0l0-5.61z M307.03162,123.958l-21.912,0c0.396,5.28,3.432,8.382,7.986,8.382c5.478,0,11.088-3.102,11.088-3.102l2.838,5.478s-6.6,5.544-15.048,5.544c-11.352,0-17.16-6.6-17.16-17.82c0-11.55,6.534-19.14,17.622-19.14c9.834,0,14.982,6.072,14.982,15.51c0,2.508-0.396,4.95-0.396,5.148z M285.25162,117.82l11.946,0c0-3.762-1.584-6.6-5.412-6.6c-3.696,0-6.006,2.706-6.534,6.6z M341.05528,139.6l-0.594-3.498c-0.924,0.924-4.29,4.158-9.966,4.158c-9.24,0-13.53-6.732-13.53-17.622c0-12.408,5.94-19.338,18.018-19.338c1.584,0,3.498,0.33,4.95,0.66l0-8.382l-5.28-1.32l0-5.28l15.18-0.528l0,44.088l5.28,1.32l0,5.28z M339.93328,128.578l0-16.368c-1.254-0.594-3.234-0.99-5.148-0.99c-5.61,0-7.59,4.29-7.59,10.89c0,6.666,1.848,10.23,6.336,10.23c4.224,0,6.402-3.762,6.402-3.762z M367.42294,93.07c0-3.762,2.706-5.94,5.676-5.94c3.432,0,5.544,1.782,5.544,5.94c0,3.894-2.838,6.006-5.544,6.006c-3.564,0-5.676-2.112-5.676-6.006z M378.51094,132.67l4.62,1.65l0,5.28l-19.8,0l0-5.28l5.28-1.65l0-21.45l-5.28-1.65l0-5.28l15.18-0.33l0,28.71z"/><path fill="#" d=""/></svg>
